0
SECTION
2
HEADER
9
$INSUNITS
70
1
9
$ACADVER
1
AC1014
9
$HANDSEED
5
FFFF
0
ENDSEC
0
SECTION
2
TABLES
0
TABLE
2
VPORT
5
8
100
AcDbSymbolTable
0
ENDTAB
0
TABLE
2
LTYPE
5
5
100
AcDbSymbolTable
0
LTYPE
5
14
100
AcDbSymbolTableRecord
100
AcDbLinetypeTableRecord
2
BYBLOCK
70
0
0
LTYPE
5
15
100
AcDbSymbolTableRecord
100
AcDbLinetypeTableRecord
2
BYLAYER
70
0
0
LTYPE
5
16
100
AcDbSymbolTableRecord
100
AcDbLinetypeTableRecord
2
DASHED
70
0
3
Dashed __ __ __ __ __ __ __ __ __ __ __ __ __ _
72
65
73
2
40
0.75
49
0.5
74
0
49
-0.25
74
0
0
ENDTAB
0
TABLE
2
LAYER
5
2
100
AcDbSymbolTable
70
2
0
LAYER
5
50
100
AcDbSymbolTableRecord
100
AcDbLayerTableRecord
2
0
70
0
62
7
6
CONTINUOUS
0
ENDTAB
0
TABLE
2
STYLE
5
3
100
AcDbSymbolTable
70
1
0
STYLE
5
11
100
AcDbSymbolTableRecord
100
AcDbTextStyleTableRecord
2
STANDARD
70
0
0
ENDTAB
0
TABLE
2
VIEW
5
6
100
AcDbSymbolTable
70
0
0
ENDTAB
0
TABLE
2
UCS
5
7
100
AcDbSymbolTable
70
0
0
ENDTAB
0
TABLE
2
APPID
5
9
100
AcDbSymbolTable
70
2
0
APPID
5
12
100
AcDbSymbolTableRecord
100
AcDbRegAppTableRecord
2
ACAD
70
0
0
ENDTAB
0
TABLE
2
DIMSTYLE
5
A
100
AcDbSymbolTable
70
1
0
ENDTAB
0
TABLE
2
BLOCK_RECORD
5
1
100
AcDbSymbolTable
70
1
0
BLOCK_RECORD
5
1F
100
AcDbSymbolTableRecord
100
AcDbBlockTableRecord
2
*MODEL_SPACE
0
BLOCK_RECORD
5
1B
100
AcDbSymbolTableRecord
100
AcDbBlockTableRecord
2
*PAPER_SPACE
0
ENDTAB
0
ENDSEC
0
SECTION
2
BLOCKS
0
BLOCK
5
20
100
AcDbEntity
100
AcDbBlockBegin
2
*MODEL_SPACE
0
ENDBLK
5
21
100
AcDbEntity
100
AcDbBlockEnd
0
BLOCK
5
1C
100
AcDbEntity
100
AcDbBlockBegin
2
*PAPER_SPACE
0
ENDBLK
5
1D
100
AcDbEntity
100
AcDbBlockEnd
0
ENDSEC
0
SECTION
2
ENTITIES
0
LWPOLYLINE
5
100
100
AcDbEntity
8
OUTER_PROFILES
100
AcDbPolyline
90
102
70
1
43
0.0
10
28.813526095727447
20
1.1765682762029446
10
28.909552191454701
20
1.1765682762029432
10
28.909552191454694
20
1.0675682762029417
42
0.41421356237308987
10
29.018552191454692
20
0.9585682762029436
10
29.839568276202819
20
0.95856827620294849
42
0.39487230085359371
10
29.948327470117192
20
1.0603268855149821
10
30.393347274403972
20
7.7441252435566286
42
-0.34841908126606713
10
31.303786422031525
20
8.7472190718690612
42
0.34841908126606896
10
32.0989589619778
20
9.6233156998997469
10
32.381306754203209
20
13.863926324178559
42
0.34841912483168325
10
31.709302737916335
20
14.83771046160355
42
-0.34841908126606774
10
30.939886363477751
20
15.952652214645871
10
31.406698481115157
20
22.96375157544685
42
0.33367003464901529
10
31.335219482823288
20
23.073419461800476
10
30.850266150843577
20
23.249928039649301
42
0.41421356237305268
10
30.826981702295548
20
23.23907032297544
10
30.761679355820696
20
23.059653600598384
42
-0.20272307234992692
10
30.646052504401581
20
22.93531025644263
42
0.42282274036226319
10
30.554041691284223
20
22.682512625056994
42
-0.20272307234993908
10
30.562690637318898
20
22.512936589788371
10
28.825874544232136
20
17.741073592286408
42
0.087488663525908686
10
28.822587792064969
20
17.722433494475162
10
28.822587792064969
20
17.467848635305717
42
0.41421356237309503
10
28.87708779206497
20
17.413348635305717
10
29.018552191454486
20
17.413348635305713
42
-0.99999999999999989
10
29.018552191454486
20
17.304348635305715
10
28.813526095673076
20
17.304348635305715
42
-0.99999999999999989
10
28.759026095673075
20
17.304348635305715
10
28.662999999999979
20
17.304348635305715
10
28.662999999999982
20
17.359138011183905
42
0.38755373201602089
10
28.761999999999965
20
17.467678326274655
10
28.761999999999972
20
23.04741837028655
10
28.622999999999976
20
23.04741837028655
10
28.622999999999958
20
23.000650653751119
10
28.5265118110236
20
23.000650653751116
10
28.5265118110236
20
23.04741837028655
10
28.386999999999972
20
23.04741837028655
10
28.386999999999972
20
23.172418370286554
10
28.5265118110236
20
23.172418370286554
10
28.5265118110236
20
23.219186086821985
10
28.622999999999983
20
23.219186086821985
10
28.622999999999976
20
23.172418370286543
10
28.761999999999972
20
23.172418370286554
10
28.761999999999976
20
23.599918370286691
10
-1.6784474073073231e-14
20
23.59991837028673
10
-1.7068586264414313e-14
20
23.172418370286579
10
0.13899999999997423
20
23.172418370286586
10
0.13899999999997137
20
23.219186086822017
10
0.23548818897635271
20
23.219186086822017
10
0.23548818897635279
20
23.172418370286579
10
0.34499999999998315
20
23.172418370286579
10
0.34499999999998332
20
23.047418370286582
10
0.23548818897635299
20
23.047418370286582
10
0.23548818897635307
20
23.000650653751144
10
0.1389999999999941
20
23.000650653751151
10
0.13899999999997725
20
23.047418370286582
10
-1.6850038424921175e-14
20
23.047418370286582
10
-2.0150110801267602e-14
20
17.467678326274687
42
0.38755373201600934
10
0.098999999999966212
20
17.359138011183941
10
0.098999999999973942
20
17.304348635305669
10
0.0029739042858116633
20
17.304348635305669
42
-0.99999999999999989
10
-0.051526095714188175
20
17.304348635305669
10
-0.25655219145397573
20
17.304348635305665
42
-0.99999999999999989
10
-0.25655219145397601
20
17.413348635305667
10
-0.11508779206446522
20
17.413348635305667
42
0.41421356237311147
10
-0.060587792064462145
20
17.467848635305664
10
-0.060587792064462805
20
17.722433494475482
42
0.087488663525921773
10
-0.063874544231630609
20
17.741073592286728
10
-1.8006906373184224
20
22.512936589788033
42
-0.20272307235013717
10
-1.7920416912836883
20
22.682512625056809
42
0.4228227403627316
10
-1.8840525044011271
20
22.935310256442641
42
-0.20272307235013107
10
-1.9996793558204078
20
23.059653600598452
10
-2.0649817022951975
20
23.239070322975341
42
0.4142135623731254
10
-2.0882661508432272
20
23.249928039649202
10
-2.573219482822807
20
23.07341946180042
42
0.33367003464902978
10
-2.6446984811146841
20
22.963751575446789
10
-2.17788636347727
20
15.952652214645804
42
-0.3484190812660618
10
-2.9473027379158263
20
14.837710461603491
42
0.34841912483168086
10
-3.61930675420269
20
13.863926324178481
10
-3.3369589619772322
20
9.6233156998996723
42
0.34841908126605592
10
-2.5417864220309969
20
8.7472190718690062
42
-0.34841908126605742
10
-1.6313472744034825
20
7.7441252435565726
10
-1.1863274701166899
20
1.0603268855149282
42
0.39487230085359093
10
-1.0775682762023164
20
0.95856827620289675
10
-0.25655219145393887
20
0.9585682762028982
42
0.41421356237309515
10
-0.14755219145393914
20
1.0675682762028986
10
-0.14755219145393694
20
1.1765682762028953
10
-0.05152609571351173
20
1.1765682762028955
42
-0.99999999999999989
10
0.0029739042864881126
20
1.1765682762028955
10
0.099000000000001392
20
1.1765682762028955
10
0.099000000000004348
20
1.0805421804998712
42
-0.99999999999999989
10
0.099000000000004473
20
1.0260421804998714
10
0.09900000000000736
20
0.93001608474837949
42
0.3875537320160799
10
1.1145939814150194e-15
20
0.8214757696576257
10
0
20
0
10
28.762000000000004
20
0
10
28.762000000000004
20
0.8214757696576257
42
0.38755373201601384
10
28.663000000000022
20
0.93001608474837727
10
28.663000000000018
20
1.0260421805019886
42
-0.99999999999999989
10
28.663000000000018
20
1.0805421805019886
10
28.663000000000007
20
1.1765682762029441
10
28.75902609567299
20
1.1765682762029444
42
-0.99999999999999989
0
LWPOLYLINE
5
101
100
AcDbEntity
8
INTERIOR_PROFILES
100
AcDbPolyline
90
4
70
1
43
0.0
10
32.055029182288379
20
13.885650643854344
10
31.77268138023468
20
9.6450398719636414
42
-0.99999998946328783
10
30.525442917038877
20
9.7280833300141172
10
30.807790719967581
20
13.968694115046612
42
-0.99999999999999989
0
LWPOLYLINE
5
102
100
AcDbEntity
8
INTERIOR_PROFILES
100
AcDbPolyline
90
4
70
1
43
0.0
10
-2.0457907199670502
20
13.968694115046549
10
-1.7634429167264654
20
9.7280833253303989
42
-0.9999999833399954
10
-3.0106813800374579
20
9.6450398690100183
10
-3.2930291822878486
20
13.885650643854271
42
-0.99999999999999989
0
CIRCLE
5
103
100
AcDbEntity
8
INTERIOR_PROFILES
100
AcDbCircle
10
1.9607951706098845
20
22.76423479594882
30
0
40
0.060999999999999097
210
0
220
0
230
-1
0
CIRCLE
5
104
100
AcDbEntity
8
INTERIOR_PROFILES
100
AcDbCircle
10
-30.722795170610482
20
22.76423479594888
30
0
40
0.061000000000002351
210
0
220
0
230
-1
0
LINE
5
105
100
AcDbEntity
8
BEND
100
AcDbLine
10
0.098999999999971014
20
17.331743323244826
30
2.6177158231159964e-13
11
28.662999999999979
21
17.331743323244794
31
2.612808438720303e-13
0
LINE
5
106
100
AcDbEntity
8
BEND
100
AcDbLine
10
-0.024276095726965395
20
1.2038182762028953
30
2.5779903146633168e-13
11
-0.024276095727004385
21
17.27709863530567
31
2.5314396248477292e-13
0
LINE
5
107
100
AcDbEntity
8
BEND
100
AcDbLine
10
28.786276095727271
20
17.277098635305716
30
2.6592901110033512e-13
11
28.786276095727356
21
1.2038182762029443
31
2.6708731465004445e-13
0
LINE
5
108
100
AcDbEntity
8
BEND
100
AcDbLine
10
28.635750000000012
20
1.0532921804756512
30
2.3675287451729e-13
11
0.12625000000000333
21
1.0532921804756512
31
1.6384531526392597e-13
0
LINE
5
109
100
AcDbEntity
8
BEND_EXTENT
100
AcDbLine
10
28.663000000000018
20
0.93001608474837882
30
2.0560980739514915e-13
11
0.099000000000008997
21
0.93001608474837882
31
2.0700851356790319e-13
0
LWPOLYLINE
5
110
100
AcDbEntity
8
BEND_EXTENT
100
AcDbPolyline
90
4
70
1
43
0.0
10
0.099000000000001392
20
1.1765682762028955
10
28.663000000000007
20
1.1765682762029441
10
28.662999999999979
20
17.304348635305715
10
0.098999999999975427
20
17.304348635305669
0
LINE
5
111
100
AcDbEntity
8
BEND_EXTENT
100
AcDbLine
10
28.909552191454608
20
17.304348635305718
30
2.769438222057104e-13
11
28.909552191454701
21
1.1765682762029444
31
2.7414640986019817e-13
0
LINE
5
112
100
AcDbEntity
8
BEND_EXTENT
100
AcDbLine
10
-0.14755219145393694
20
1.1765682762028953
30
2.5456452344161067e-13
11
-0.14755219145397888
21
17.304348635305669
31
2.4896969875058627e-13
0
LINE
5
113
100
AcDbEntity
8
BEND_EXTENT
100
AcDbLine
10
0.098999999999965463
20
17.359138011183934
30
2.6260708393495825e-13
11
28.662999999999982
21
17.359138011183902
31
2.6435546665090546e-13
0
ENDSEC
0
SECTION
2
OBJECTS
0
DICTIONARY
5
C
100
AcDbDictionary
3
ACAD_GROUP
350
D
3
ACAD_MLINESTYLE
350
17
0
DICTIONARY
5
D
100
AcDbDictionary
0
DICTIONARY
5
1A
330
C
100
AcDbDictionary
0
DICTIONARY
5
17
100
AcDbDictionary
0
ENDSEC
0
EOF
