0
SECTION
2
HEADER
9
$INSUNITS
70
1
9
$ACADVER
1
AC1014
9
$HANDSEED
5
FFFF
0
ENDSEC
0
SECTION
2
TABLES
0
TABLE
2
VPORT
5
8
100
AcDbSymbolTable
0
ENDTAB
0
TABLE
2
LTYPE
5
5
100
AcDbSymbolTable
0
LTYPE
5
14
100
AcDbSymbolTableRecord
100
AcDbLinetypeTableRecord
2
BYBLOCK
70
0
0
LTYPE
5
15
100
AcDbSymbolTableRecord
100
AcDbLinetypeTableRecord
2
BYLAYER
70
0
0
LTYPE
5
16
100
AcDbSymbolTableRecord
100
AcDbLinetypeTableRecord
2
DASHED
70
0
3
Dashed __ __ __ __ __ __ __ __ __ __ __ __ __ _
72
65
73
2
40
0.75
49
0.5
74
0
49
-0.25
74
0
0
ENDTAB
0
TABLE
2
LAYER
5
2
100
AcDbSymbolTable
70
2
0
LAYER
5
50
100
AcDbSymbolTableRecord
100
AcDbLayerTableRecord
2
0
70
0
62
7
6
CONTINUOUS
0
ENDTAB
0
TABLE
2
STYLE
5
3
100
AcDbSymbolTable
70
1
0
STYLE
5
11
100
AcDbSymbolTableRecord
100
AcDbTextStyleTableRecord
2
STANDARD
70
0
0
ENDTAB
0
TABLE
2
VIEW
5
6
100
AcDbSymbolTable
70
0
0
ENDTAB
0
TABLE
2
UCS
5
7
100
AcDbSymbolTable
70
0
0
ENDTAB
0
TABLE
2
APPID
5
9
100
AcDbSymbolTable
70
2
0
APPID
5
12
100
AcDbSymbolTableRecord
100
AcDbRegAppTableRecord
2
ACAD
70
0
0
ENDTAB
0
TABLE
2
DIMSTYLE
5
A
100
AcDbSymbolTable
70
1
0
ENDTAB
0
TABLE
2
BLOCK_RECORD
5
1
100
AcDbSymbolTable
70
1
0
BLOCK_RECORD
5
1F
100
AcDbSymbolTableRecord
100
AcDbBlockTableRecord
2
*MODEL_SPACE
0
BLOCK_RECORD
5
1B
100
AcDbSymbolTableRecord
100
AcDbBlockTableRecord
2
*PAPER_SPACE
0
ENDTAB
0
ENDSEC
0
SECTION
2
BLOCKS
0
BLOCK
5
20
100
AcDbEntity
100
AcDbBlockBegin
2
*MODEL_SPACE
0
ENDBLK
5
21
100
AcDbEntity
100
AcDbBlockEnd
0
BLOCK
5
1C
100
AcDbEntity
100
AcDbBlockBegin
2
*PAPER_SPACE
0
ENDBLK
5
1D
100
AcDbEntity
100
AcDbBlockEnd
0
ENDSEC
0
SECTION
2
ENTITIES
0
LWPOLYLINE
5
100
100
AcDbEntity
8
0
100
AcDbPolyline
90
4
70
1
43
0.0
10
-3.0106813800374579
20
9.6450398690100201
42
0.99999998946328783
10
-1.7634429170383115
20
9.7280833300140515
10
-2.0457907199670524
20
13.968694115046548
42
0.99999999999999989
10
-3.2930291822878459
20
13.885650643854271
0
CIRCLE
5
101
100
AcDbEntity
8
0
100
AcDbCircle
10
-1.9607951706098845
20
22.76423479594882
30
0
40
0.060999999999999534
210
-9.7951236838161397e-31
220
-4.0989894419712883e-31
230
1
0
LWPOLYLINE
5
102
100
AcDbEntity
8
0
100
AcDbPolyline
90
4
70
1
43
0.0
10
32.055029182288379
20
13.885650643854344
42
0.99999999999999989
10
30.807790719967581
20
13.968694115046615
10
30.525442917038877
20
9.7280833300141172
42
0.99999998946328783
10
31.77268138023468
20
9.6450398719636432
0
CIRCLE
5
103
100
AcDbEntity
8
0
100
AcDbCircle
10
30.722795170610482
20
22.76423479594888
30
0
40
0.060999999999999548
210
5.7122775231827884e-32
220
-6.2754935585512464e-30
230
1
0
LWPOLYLINE
5
104
100
AcDbEntity
8
0
100
AcDbPolyline
90
102
70
1
43
0.0
10
-1.9341483795142981e-14
20
17.467678326274687
42
0.38755373201599125
10
0.098999999999966143
20
17.359138011183941
10
0.098999999999973942
20
17.304348635305669
10
0.0029739042858116633
20
17.304348635305669
42
-0.99999999999999989
10
-0.051526095714188175
20
17.304348635305669
10
-0.25655219145397573
20
17.304348635305665
42
-0.99999999999999989
10
-0.25655219145397601
20
17.413348635305667
10
-0.11508779206446482
20
17.413348635305667
42
0.41421356237312967
10
-0.060587792064464123
20
17.467848635305664
10
-0.060587792064462923
20
17.722433494475482
42
0.087488663525898791
10
-0.063874544231630706
20
17.741073592286728
10
-1.8006906373184224
20
22.512936589788033
42
-0.20272307235013717
10
-1.7920416912836883
20
22.682512625056809
42
0.4228227403627301
10
-1.884052504401126
20
22.935310256442641
42
-0.20272307235013221
10
-1.9996793558204078
20
23.059653600598452
10
-2.0649817022951984
20
23.239070322975341
42
0.41421356237309936
10
-2.0882661508432272
20
23.249928039649202
10
-2.5732194828228074
20
23.07341946180042
42
0.33367003464902717
10
-2.6446984811146836
20
22.963751575446789
10
-2.17788636347727
20
15.952652214645804
42
-0.3484190812660618
10
-2.9473027379158254
20
14.837710461603489
42
0.34841912483168169
10
-3.61930675420269
20
13.863926324178479
10
-3.3369589619772322
20
9.6233156998996723
42
0.34841908126605575
10
-2.5417864220309974
20
8.7472190718690044
42
-0.34841908126605714
10
-1.6313472744034827
20
7.7441252435565744
10
-1.1863274701166906
20
1.0603268855149297
42
0.39487230085359548
10
-1.0775682762023162
20
0.95856827620289697
10
-0.25655219145393887
20
0.95856827620289986
42
0.41421356237309293
10
-0.14755219145393911
20
1.0675682762028984
10
-0.14755219145393694
20
1.1765682762028953
10
-0.05152609571351173
20
1.1765682762028955
42
-0.99999999999999989
10
0.0029739042864881126
20
1.1765682762028955
10
0.099000000000001392
20
1.1765682762028955
10
0.099000000000004348
20
1.0805421804998712
42
-0.99999999999999989
10
0.099000000000004473
20
1.0260421804998714
10
0.099000000000007402
20
0.93001608474837882
42
0.3875537320160799
10
1.070884413516391e-15
20
0.8214757696576257
10
0
20
0
10
28.762000000000004
20
0
10
28.762000000000015
20
0.8214757696576257
42
0.38755373201602633
10
28.663000000000018
20
0.9300160847483766
10
28.663000000000007
20
1.0260421805019886
42
-0.99999999999999989
10
28.663000000000018
20
1.0805421805019886
10
28.663000000000007
20
1.1765682762029441
10
28.75902609567299
20
1.1765682762029499
42
-0.99999999999999989
10
28.813526095672991
20
1.1765682762029444
10
28.909552191454701
20
1.1765682762029432
10
28.909552191454694
20
1.0675682762029437
42
0.41421356237312462
10
29.018552191454692
20
0.95856827620294416
10
29.839568276202819
20
0.95856827620295371
42
0.39487230085357516
10
29.948327470117189
20
1.060326885514983
10
30.393347274403972
20
7.7441252435566286
42
-0.34841908126606858
10
31.303786422031532
20
8.7472190718690648
42
0.3484190812660673
10
32.0989589619778
20
9.6233156998997469
10
32.381306754203223
20
13.863926324178559
42
0.34841912483168425
10
31.709302737916328
20
14.837710461603557
42
-0.3484190812660673
10
30.939886363477751
20
15.952652214645873
10
31.406698481115029
20
22.96375157544686
42
0.33367003464901918
10
31.33521948282328
20
23.073419461800484
10
30.850266150843574
20
23.249928039649301
42
0.41421356237320678
10
30.826981702295551
20
23.239070322975433
10
30.761679355820696
20
23.059653600598388
42
-0.20272307234992798
10
30.646052504401581
20
22.935310256442641
42
0.42282274036227296
10
30.554041691284226
20
22.68251262505699
42
-0.20272307234993306
10
30.562690637318898
20
22.512936589788371
10
28.825874544232136
20
17.741073592286408
42
0.087488663525772864
10
28.822587792064969
20
17.722433494475162
10
28.822587792064969
20
17.467848635305714
42
0.41421356237301987
10
28.87708779206497
20
17.413348635305717
10
29.018552191454486
20
17.413348635305713
42
-0.99999999999999989
10
29.018552191454486
20
17.304348635305715
10
28.813526095673076
20
17.304348635305722
42
-0.99999999999999989
10
28.759026095673075
20
17.304348635305715
10
28.662999999999979
20
17.304348635305715
10
28.662999999999982
20
17.359138011183902
42
0.38755373201600085
10
28.761999999999972
20
17.467678326274655
10
28.761999999999972
20
23.04741837028655
10
28.622999999999976
20
23.04741837028655
10
28.622999999999958
20
23.000650653751119
10
28.5265118110236
20
23.000650653751116
10
28.5265118110236
20
23.04741837028655
10
28.386999999999972
20
23.04741837028655
10
28.386999999999972
20
23.172418370286554
10
28.5265118110236
20
23.172418370286554
10
28.5265118110236
20
23.219186086821985
10
28.622999999999983
20
23.219186086821985
10
28.622999999999976
20
23.172418370286543
10
28.761999999999972
20
23.172418370286554
10
28.761999999999976
20
23.599918370286691
10
-1.6784474073073231e-14
20
23.59991837028673
10
-1.7068586264414313e-14
20
23.172418370286579
10
0.13899999999997423
20
23.172418370286586
10
0.13899999999997137
20
23.219186086822017
10
0.23548818897635271
20
23.219186086822017
10
0.23548818897635279
20
23.172418370286579
10
0.34499999999998315
20
23.172418370286579
10
0.34499999999998332
20
23.047418370286582
10
0.23548818897635299
20
23.047418370286582
10
0.23548818897635307
20
23.000650653751144
10
0.1389999999999941
20
23.000650653751151
10
0.13899999999997725
20
23.047418370286582
10
-1.6850038424921175e-14
20
23.047418370286582
0
CIRCLE
5
105
100
AcDbEntity
8
0
100
AcDbCircle
10
-1.9607951706098845
20
22.76423479594882
30
-1.0335941309352469e-27
40
0.060999999999999534
210
0
220
0
230
1
0
CIRCLE
5
106
100
AcDbEntity
8
0
100
AcDbCircle
10
30.722795170610461
20
22.764234795948887
30
-1.0335941309352469e-27
40
0.060999999999999548
210
0
220
-0
230
1
0
LWPOLYLINE
5
107
100
AcDbEntity
8
0
100
AcDbPolyline
90
102
70
1
43
0.0
10
0.099000000000004473
20
1.0260421804999456
42
0.99999999999999989
10
0.09900000000000439
20
1.0805421804999453
10
0.099000000000001545
20
1.1765682762028955
10
0.0029739042860768929
20
1.1765682762028955
42
0.99999999999999989
10
-0.051526095713922949
20
1.1765682762028955
10
-0.14755219145393716
20
1.1765682762028953
10
-0.14755219145393655
20
1.0675682762028986
42
-0.41421356237309481
10
-0.25655219145393632
20
0.9585682762028982
10
-1.0775682762023169
20
0.95856827620289697
42
-0.39487230085359676
10
-1.1863274701166904
20
1.0603268855149304
10
-1.6313472744034831
20
7.7441252435565753
42
0.34841908126605703
10
-2.5417864220309969
20
8.7472190718690026
42
-0.34841908126605414
10
-3.3369589619772309
20
9.6233156998996705
10
-3.6193067542026895
20
13.863926324178484
42
-0.34841912483168058
10
-2.9473027379158285
20
14.837710461603491
42
0.3484190812660623
10
-2.1778863634772692
20
15.9526522146458
10
-2.6446984811146845
20
22.963751575446789
42
-0.33367003464902439
10
-2.5732194828228088
20
23.07341946180042
10
-2.0882661508432263
20
23.249928039649202
42
-0.41421356237311285
10
-2.064981702295198
20
23.239070322975341
10
-1.9996793558204076
20
23.059653600598452
42
0.20272307235012277
10
-1.8840525044011271
20
22.935310256442637
42
-0.42282274036272643
10
-1.792041691283687
20
22.682512625056813
42
0.2027230723501349
10
-1.8006906373184224
20
22.512936589788033
10
-0.063874544231633662
20
17.741073592286728
42
-0.087488663525921773
10
-0.06058779206446583
20
17.722433494475482
10
-0.06058779206446533
20
17.467848635305664
42
-0.41421356237309431
10
-0.11508779206446504
20
17.413348635305667
10
-0.25655219145397773
20
17.413348635305663
42
0.99999999999999989
10
-0.25655219145397878
20
17.304348635305665
10
-0.051526095714305671
20
17.304348635305669
42
0.99999999999999989
10
0.0029739042856941722
20
17.304348635305669
10
0.098999999999973942
20
17.304348635305669
10
0.098999999999965643
20
17.359138011183973
42
-0.3875537320160371
10
-1.9297774227244353e-14
20
17.467678326274733
10
-1.2570751944738134e-14
20
23.047418370286625
10
0.13899999999994936
20
23.047418370286621
10
0.13899999999996465
20
23.000650653751194
10
0.23548818897632509
20
23.00065065375118
10
0.23548818897632579
20
23.047418370286618
10
0.34499999999998338
20
23.047418370286621
10
0.34499999999998404
20
23.172418370286618
10
0.23548818897632509
20
23.172418370286618
10
0.23548818897632576
20
23.219186086822052
10
0.13899999999994375
20
23.219186086822052
10
0.13899999999994533
20
23.172418370286618
10
-1.6784474073073231e-14
20
23.172418370286618
10
-1.199635820710362e-14
20
23.599918370286765
10
28.761999999999976
20
23.599918370286737
10
28.761999999999972
20
23.172418370286579
10
28.623000000000015
20
23.172418370286586
10
28.623000000000022
20
23.219186086822013
10
28.526511811023632
20
23.219186086822013
10
28.526511811023639
20
23.172418370286586
10
28.386999999999972
20
23.172418370286579
10
28.386999999999976
20
23.047418370286593
10
28.526511811023639
20
23.047418370286586
10
28.526511811023639
20
23.000650653751155
10
28.622999999999987
20
23.000650653751155
10
28.623000000000012
20
23.047418370286586
10
28.761999999999972
20
23.047418370286582
10
28.761999999999965
20
17.467678326274694
42
-0.38755373201602838
10
28.662999999999982
20
17.359138011183941
10
28.662999999999979
20
17.304348635305715
10
28.759026095673054
20
17.304348635305715
42
0.99999999999999989
10
28.813526095673051
20
17.304348635305715
10
29.018552191454482
20
17.304348635305718
42
0.99999999999999989
10
29.018552191454482
20
17.413348635305717
10
28.877087792064962
20
17.413348635305717
42
-0.41421356237314017
10
28.822587792064954
20
17.467848635305714
10
28.822587792064954
20
17.722433494475162
42
-0.087488663525908686
10
28.825874544232121
20
17.741073592286408
10
30.562690637318873
20
22.512936589788371
42
0.2027230723499073
10
30.554041691284208
20
22.682512625056994
42
-0.42282274036227152
10
30.646052504401563
20
22.935310256442641
42
0.20272307234993844
10
30.761679355820686
20
23.059653600598395
10
30.826981702295534
20
23.239070322975437
42
-0.41421356237319523
10
30.850266150843563
20
23.249928039649298
10
31.335219482823259
20
23.073419461800484
42
-0.33367003464904244
10
31.406698481115136
20
22.96375157544685
10
30.93988636347774
20
15.952652214645871
42
0.34841908126606724
10
31.709302737916325
20
14.83771046160355
42
-0.34841912468018177
10
32.381306754237379
20
13.86392632469189
10
32.098958961977779
20
9.6233156998997433
42
-0.34841908126606785
10
31.303786422031521
20
8.7472190718690683
42
0.34841908126607024
10
30.393347274403965
20
7.7441252435566259
10
29.948327470117178
20
1.0603268855149897
42
-0.39487230085361402
10
29.839568276202801
20
0.95856827620294915
10
29.018552191454678
20
0.95856827620294538
42
-0.41421356237309459
10
28.909552191454676
20
1.0675682762029448
10
28.909552191454676
20
1.1765682762029459
10
28.813526095672959
20
1.1765682762029446
42
0.99999999999999989
10
28.759026095672958
20
1.1765682762029441
10
28.663000000000018
20
1.1765682762029441
10
28.663000000000018
20
1.0805421805019844
42
0.99999999999999989
10
28.663000000000018
20
1.0260421805019844
10
28.663000000000011
20
0.93001608474840036
42
-0.38755373201604348
10
28.762000000000004
20
0.82147576965764812
10
28.762000000000015
20
2.2379298764097642e-14
10
0
20
2.5176711109609849e-14
10
1.0927391974657051e-15
20
0.82147576965764946
42
-0.38755373201606513
10
0.099000000000001795
20
0.9300160847484028
0
LWPOLYLINE
5
108
100
AcDbEntity
8
0
100
AcDbPolyline
90
4
70
1
43
0.0
10
-3.2930291822878459
20
13.885650643854271
10
-3.0106813802341117
20
9.6450398719635722
42
0.99999999999999989
10
-1.763442917491248
20
9.728083336816745
10
-2.0457907199670524
20
13.968694115046549
42
0.99999999999999989
0
LWPOLYLINE
5
109
100
AcDbEntity
8
0
100
AcDbPolyline
90
4
70
1
43
0.0
10
32.055029182288358
20
13.885650643854346
10
31.772681381109663
20
9.6450398851054349
42
-0.99999999999999989
10
30.525442917038863
20
9.7280833300141154
10
30.807790719967585
20
13.968694115046608
42
-0.99999999999999989
0
ENDSEC
0
SECTION
2
OBJECTS
0
DICTIONARY
5
C
100
AcDbDictionary
3
ACAD_GROUP
350
D
3
ACAD_MLINESTYLE
350
17
0
DICTIONARY
5
D
100
AcDbDictionary
0
DICTIONARY
5
1A
330
C
100
AcDbDictionary
0
DICTIONARY
5
17
100
AcDbDictionary
0
ENDSEC
0
EOF
